<svg xmlns="http://www.w3.org/2000/svg" width="19" height="19" viewBox="0 0 350 300" class="p-header-sns__svg"><path class="fill" fill-rule="evenodd" d="M350.001 35.509c-3.975 6.658-9.352 13.688-16.131 21.086-5.377 5.918-11.926 11.961-19.639 18.125v4.81c0 1.232.115 2.096.348 2.589v2.589c0 25.401-4.557 50.864-13.676 76.389-9.118 25.523-22.094 48.397-38.928 68.618-18.004 21.702-39.862 38.841-65.581 51.419-25.72 12.577-54.477 18.865-86.272 18.865-20.576 0-39.98-2.958-58.218-8.877-18.703-5.92-36.005-14.304-51.905-25.155.937.247 2.338.371 4.209.371 3.74.493 6.547.739 8.418.739h4.557c16.367 0 32.384-2.835 48.048-8.508 14.496-5.425 28.172-13.316 41.032-23.674-14.963-.246-28.876-5.426-41.732-15.538-12.627-9.863-21.045-22.317-25.252-37.36 3.507.74 5.728 1.108 6.664 1.108h3.504c.704.247 1.755.371 3.158.371 2.103 0 3.741-.124 4.911-.371 2.337 0 5.612-.493 9.819-1.479.466 0 1.17-.124 2.104-.37.937-.247 1.636-.369 2.103-.369-16.601-3.453-30.277-12.208-41.033-26.265-10.989-14.057-16.48-30.086-16.48-48.088v-1.11c4.442 2.959 9.586 5.179 15.431 6.658 6.078 1.972 11.805 2.96 17.184 2.96-10.29-7.398-18.004-16.4-23.147-27.004-5.846-10.851-8.768-22.936-8.768-36.252 0-7.398.817-14.057 2.454-19.976.937-4.193 3.274-10.234 7.015-18.125 18.237 23.673 39.979 42.169 65.231 55.487 25.953 14.303 53.54 22.194 82.766 23.675-.701-5.18-1.05-8.015-1.05-8.508-.471-3.453-.704-6.288-.704-8.509 0-20.962 7.015-38.841 21.042-53.637C205.512 7.396 222.462-.002 242.337-.002c10.286 0 19.988 2.096 29.107 6.288 9.118 4.685 16.95 10.605 23.498 17.756 7.481-1.727 15.43-4.192 23.846-7.398 7.015-2.713 14.263-6.412 21.744-11.097-2.803 8.877-6.898 16.892-12.272 24.044-6.081 7.398-12.509 13.316-19.291 17.756a319.095 319.095 0 0021.041-4.44c5.378-1.479 12.042-3.946 19.991-7.398z"/></svg>