<svg class="p-home-catch-letter__svg" xmlns="http://www.w3.org/2000/svg" viewBox="0 0 722.089 800" width="200" height="200"><path class="st0" d="M714.296 12.594C689.411-3.524 543.645-31.121 346.382 189.541 149.105 410.189 5.353 782.457 2.183 793.365c-3.184 10.921 14.419 1.241 28.169-15.463 0 0 104.521-234.867 120.381-256.325 5.683-7.709 13.178-11.45 23.514-11.393 10.35.044 19.574 3.898 21.716 8.681 2.184 4.769 10.464 4.811 13.748 1.627-17.331 2.656-8.152-9.266-30.039-17.118 29.197 11.45 56.579-1.285 79.865-15.219-33.179 2.17-66.072-11.821-66.072-11.821 73.796 25.884 145.68-33.065 145.68-33.065s-45.743 14.806-102.036-.086c107.833 10.65 171.236-34.506 201.988-64.002-16.804 6.938-122.951 15.989-158.586 1.199 36.249 7.582 180.416 5.154 207.171-46.228-21.287 5.611-55.994 3.397-76.881 1.27 68.286 4.811 124.436-32.537 136.129-72.769-25.784 7.295-89.629 18.302-153.732 9.994 142.554 3.012 205.742-36.278 207.77-53.439-13.292 5.011-70.398 38.676-138.999 30.566 103.936 3.598 206.713-80.378 188.24-128.648 30.079-11.95 88.986-92.427 64.087-108.532z"/></svg>