<svg xmlns="http://www.w3.org/2000/svg" width="24" height="24" viewBox="0 0 24 24" fill="none">
                <path
                  d="M1.06002 22.641H5.68063C5.92525 22.641 6.14269 22.5051 6.27859 22.3148L18.9989 1.41336C19.1619 1.14156 18.9717 0.815399 18.6455 0.815399H14.2695C14.0521 0.815399 13.8618 0.924119 13.7531 1.11438L0.842577 22.2605C0.761037 22.4236 0.869757 22.641 1.06002 22.641Z"
                  fill="black" />
                <path
                  d="M16.9876 22.3148L22.9944 12.6659C23.1846 12.3669 22.9672 11.9864 22.6138 11.9864H18.265C18.1019 11.9864 17.9389 12.0679 17.8573 12.2038L11.6875 22.0702C11.5244 22.3148 11.7146 22.641 12.0136 22.641H16.444C16.6614 22.641 16.8788 22.5323 16.9876 22.3148Z"
                  fill="black" />
              </svg>