<svg class="p-home-catch-letter__svg" version="1.1" id="_x30_" xmlns="http://www.w3.org/2000/svg" xmlns:xlink="http://www.w3.org/1999/xlink" x="0px" y="0px" viewBox="0 0 722.089 800" style="enable-background:new 0 0 722.089 800;" xml:space="preserve" width="200px" height="200px">
  <g>
    <path class="st0" d="M714.296,12.594C689.411-3.524,543.645-31.121,346.382,189.541C149.105,410.189,5.353,782.457,2.183,793.365c-3.184,10.921,14.419,1.241,28.169-15.463c0,0,104.521-234.867,120.381-256.325c5.683-7.709,13.178-11.45,23.514-11.393c10.35,0.044,19.574,3.898,21.716,8.681c2.184,4.769,10.464,4.811,13.748,1.627c-17.331,2.656-8.152-9.266-30.039-17.118c29.197,11.45,56.579-1.285,79.865-15.219c-33.179,2.17-66.072-11.821-66.072-11.821c73.796,25.884,145.68-33.065,145.68-33.065s-45.743,14.806-102.036-0.086c107.833,10.65,171.236-34.506,201.988-64.002c-16.804,6.938-122.951,15.989-158.586,1.199c36.249,7.582,180.416,5.154,207.171-46.228c-21.287,5.611-55.994,3.397-76.881,1.27c68.286,4.811,124.436-32.537,136.129-72.769c-25.784,7.295-89.629,18.302-153.732,9.994c142.554,3.012,205.742-36.278,207.77-53.439c-13.292,5.011-70.398,38.676-138.999,30.566c103.936,3.598,206.713-80.378,188.24-128.648C680.288,109.176,739.195,28.699,714.296,12.594z"></path>
  </g>
</svg>